<svg width="512" height="427" viewBox="0 0 512 427" fill="none" xmlns="http://www.w3.org/2000/svg">
<g clip-path="url(#clip0)">
<path d="M497 0H15C6.71484 0 0 6.71484 0 15V412.445C0 420.73 6.71484 427.445 15 427.445H497C505.285 427.445 512 420.73 512 412.445V15C512 6.71484 505.285 0 497 0Z" fill="#9DB1C7"/>
<path d="M256 0H15C6.71484 0 0 6.71484 0 15V412.445C0 420.73 6.71484 427.445 15 427.445H256V0Z" fill="#FAFAFA"/>
<path d="M0 341.359V412.445C0 420.73 6.71484 427.445 15 427.445H497C505.285 427.445 512 420.73 512 412.445V341.359H0ZM81.2305 397.445H30V371.328H81.2305V397.445ZM161.562 397.445H111.23V371.328H161.562V397.445ZM241.895 397.445H191.562V371.328H241.895V397.445ZM322.23 397.445H271.895V371.328H322.23V397.445ZM402.562 397.445H352.23V371.328H402.562V397.445ZM482 397.445H432.562V371.328H482V397.445Z" fill="#29353D"/>
<path d="M512 86.1211V15C512 6.71875 505.285 0 497 0H15C6.71484 0 0 6.71875 0 15V86.1211H512ZM432.562 30H482V56.1172H432.562V30ZM352.23 30H402.562V56.1172H352.23V30ZM271.895 30H322.23V56.1172H271.895V30ZM191.562 30H241.895V56.1172H191.562V30ZM111.23 30H161.562V56.1172H111.23V30ZM30 30H81.2305V56.1172H30V30Z" fill="#29353D"/>
<path d="M256 341.359H0V412.445C0 420.73 6.71484 427.445 15 427.445H256V341.359ZM81.2305 397.445H30V371.328H81.2305V397.445ZM161.562 397.445H111.23V371.328H161.562V397.445ZM191.562 397.445V371.328H241.895V397.445H191.562Z" fill="#638094"/>
<path d="M256 0H15C6.71484 0 0 6.71484 0 15V86.1211H256V0ZM81.2305 56.1172H30V30H81.2305V56.1172ZM161.562 56.1172H111.23V30H161.562V56.1172ZM191.562 56.1172V30H241.895V56.1172H191.562Z" fill="#638094"/>
<path d="M311.473 198.27C311.066 197.973 310.641 197.695 310.203 197.441L224.375 147.34C218.156 143.273 209.984 142.812 203.266 146.234C196.648 149.598 192.539 156.164 192.539 163.367V264.082C192.539 271.285 196.648 277.848 203.266 281.215C206.273 282.746 209.574 283.5 212.859 283.5C216.91 283.5 220.941 282.355 224.375 280.105L310.203 230.008C310.641 229.754 311.066 229.477 311.473 229.18C316.547 225.48 319.461 219.852 319.461 213.727C319.461 207.602 316.547 201.965 311.473 198.27V198.27Z" fill="#5E55E0"/>
<path d="M256 165.801L224.375 147.34C218.156 143.27 209.984 142.812 203.266 146.23C196.648 149.598 192.539 156.164 192.539 163.367V264.078C192.539 271.281 196.648 277.848 203.266 281.215C206.273 282.746 209.574 283.5 212.859 283.5C216.91 283.5 220.941 282.352 224.375 280.105L256 261.648V165.801Z" fill="#9690F0"/>
</g>
<defs>
<clipPath id="clip0">
<rect width="512" height="427" fill="white"/>
</clipPath>
</defs>
</svg>
