<svg width="120" height="66" viewBox="0 0 120 66" fill="none" xmlns="http://www.w3.org/2000/svg">
<path d="M21.6501 12.7C23.2835 12.7 24.7835 13.0833 26.1501 13.85C27.5501 14.5833 28.6501 15.6 29.4501 16.9C30.2501 18.1667 30.6501 19.5667 30.6501 21.1C30.6501 23.4333 30.1335 25.2167 29.1001 26.45C28.0668 27.6833 26.6668 28.5667 24.9001 29.1V29.3C29.2668 30.3 31.4501 33.15 31.4501 37.85C31.4501 39.5167 31.0168 41.05 30.1501 42.45C29.3168 43.85 28.1668 44.9667 26.7001 45.8C25.2668 46.6 23.6835 47 21.9501 47H2.85012V12.7H21.6501ZM12.5001 25.85H18.2501C18.9501 25.85 19.5335 25.6167 20.0001 25.15C20.5001 24.65 20.7501 24.05 20.7501 23.35V22.5C20.7501 21.8 20.5001 21.2167 20.0001 20.75C19.5335 20.25 18.9501 20 18.2501 20H12.5001V25.85ZM12.5001 39.05H18.8501C19.5501 39.05 20.1335 38.8167 20.6001 38.35C21.1001 37.85 21.3501 37.25 21.3501 36.55V35.65C21.3501 34.95 21.1001 34.3667 20.6001 33.9C20.1335 33.4 19.5501 33.15 18.8501 33.15H12.5001V39.05ZM52.0126 45.2C50.7793 48.6 49.096 51.3 46.9626 53.3C44.8293 55.3333 42.2793 56.35 39.3126 56.35C37.046 56.35 35.396 56.1 34.3626 55.6V49.15C34.7626 49.35 35.3126 49.5167 36.0126 49.65C36.746 49.7833 37.446 49.85 38.1126 49.85C39.446 49.85 40.3626 49.5 40.8626 48.8C41.396 48.1333 41.7793 47.2833 42.0126 46.25L32.6126 21.45H43.1626L47.1126 34.7H47.5126L50.8626 21.45H60.6126L52.0126 45.2ZM78.1993 20.95C80.3993 20.95 82.0993 21.5667 83.2993 22.8C84.5327 24 85.1493 25.6667 85.1493 27.8V28.65L85.0493 30.55L84.9493 31.8H76.8493V30.6C76.8493 29.9 76.6327 29.3167 76.1993 28.85C75.7993 28.35 75.316 28.1 74.7493 28.1C74.1493 28.1 73.6327 28.35 73.1993 28.85C72.7993 29.3167 72.5993 29.9 72.5993 30.6V47H62.9493V21.45H70.3493L71.4493 25.15C71.6493 24.75 72.0327 24.2167 72.5993 23.55C73.166 22.8833 73.9327 22.2833 74.8993 21.75C75.866 21.2167 76.966 20.95 78.1993 20.95ZM105.392 47L104.492 44.05C102.659 46.35 100.509 47.5 98.0423 47.5C95.9756 47.5 94.109 47.0167 92.4423 46.05C90.809 45.0833 89.509 43.6333 88.5423 41.7C87.609 39.7333 87.1423 37.3333 87.1423 34.5V33.95C87.1423 31.1167 87.559 28.7333 88.3923 26.8C89.259 24.8333 90.409 23.3667 91.8423 22.4C93.309 21.4333 94.959 20.95 96.7923 20.95C99.9256 20.95 102.126 22 103.392 24.1V11H113.292V47H105.392ZM100.292 27.2C99.4256 27.2 98.6923 27.55 98.0923 28.25C97.4923 28.9167 97.1923 29.7333 97.1923 30.7V37.95C97.1923 38.9167 97.4923 39.75 98.0923 40.45C98.6923 41.1167 99.4256 41.45 100.292 41.45C101.159 41.45 101.892 41.1167 102.492 40.45C103.092 39.75 103.392 38.9167 103.392 37.95V30.7C103.392 29.7333 103.092 28.9167 102.492 28.25C101.892 27.55 101.159 27.2 100.292 27.2Z" fill="black"/>
<path d="M93.4525 52.833C93.9465 52.833 94.4015 52.9543 94.8175 53.197C95.2421 53.4396 95.5758 53.7733 95.8185 54.198C96.0611 54.614 96.1825 55.069 96.1825 55.563V55.849C96.1825 56.343 96.0611 56.8023 95.8185 57.227C95.5758 57.643 95.2421 57.9723 94.8175 58.215C94.4015 58.4576 93.9465 58.579 93.4525 58.579H91.4375V61.751H88.7075V52.833H93.4525ZM91.4375 56.59H92.6335C92.8761 56.59 93.0668 56.512 93.2055 56.356C93.3441 56.1913 93.4135 56.0093 93.4135 55.81V55.654C93.4135 55.4546 93.3441 55.277 93.2055 55.121C93.0755 54.9563 92.8848 54.874 92.6335 54.874H91.4375V56.59ZM101.831 52.833C102.256 52.833 102.655 52.9283 103.027 53.119C103.409 53.301 103.716 53.561 103.95 53.899C104.184 54.2283 104.301 54.6096 104.301 55.043C104.301 55.355 104.228 55.6626 104.08 55.966C103.942 56.2693 103.751 56.5293 103.508 56.746C103.266 56.9626 102.997 57.097 102.702 57.149V57.214C103.179 57.3613 103.534 57.6386 103.768 58.046C104.011 58.4446 104.132 58.93 104.132 59.502C104.132 59.9093 104.171 60.2603 104.249 60.555C104.327 60.841 104.509 61.023 104.795 61.101V61.634C104.397 61.7986 103.877 61.881 103.235 61.881C102.62 61.881 102.161 61.7553 101.857 61.504C101.554 61.244 101.402 60.8106 101.402 60.204C101.402 59.632 101.329 59.1726 101.181 58.826C101.043 58.4706 100.731 58.293 100.245 58.293H99.4914V61.751H96.8264V52.833H101.831ZM99.4914 56.304H100.869C101.051 56.304 101.203 56.2433 101.324 56.122C101.454 55.992 101.519 55.836 101.519 55.654V55.524C101.519 55.342 101.454 55.1903 101.324 55.069C101.203 54.939 101.051 54.874 100.869 54.874H99.4914V56.304ZM109.718 52.729C110.428 52.729 111.078 52.9066 111.668 53.262C112.266 53.6086 112.738 54.081 113.085 54.679C113.44 55.2683 113.618 55.9183 113.618 56.629V57.981C113.618 58.6916 113.44 59.346 113.085 59.944C112.738 60.5333 112.266 61.0056 111.668 61.361C111.078 61.7076 110.428 61.881 109.718 61.881H108.99C108.279 61.881 107.625 61.7076 107.027 61.361C106.437 61.0056 105.965 60.5333 105.61 59.944C105.263 59.346 105.09 58.6916 105.09 57.981V56.629C105.09 55.9183 105.263 55.2683 105.61 54.679C105.965 54.081 106.437 53.6086 107.027 53.262C107.625 52.9066 108.279 52.729 108.99 52.729H109.718ZM109.328 54.731C108.964 54.731 108.656 54.8566 108.405 55.108C108.153 55.3593 108.028 55.667 108.028 56.031V58.54C108.028 58.904 108.153 59.2116 108.405 59.463C108.656 59.7143 108.964 59.84 109.328 59.84H109.393C109.757 59.84 110.064 59.7143 110.316 59.463C110.567 59.2116 110.693 58.904 110.693 58.54V56.031C110.693 55.667 110.567 55.3593 110.316 55.108C110.064 54.8566 109.757 54.731 109.393 54.731H109.328Z" fill="#FF5070"/>
</svg>
