
<svg width="177" height="143" viewBox="0 0 177 143" fill="none" xmlns="http://www.w3.org/2000/svg">
<path d="M150.75 3.68719H2.83031V116.644H150.75V3.68719Z" fill="#ECF0F1"/>
<path d="M153.45 119.334H0.151367V0.998413H153.45V119.334ZM5.53026 113.955H148.071V6.37731H5.53026V113.955Z" fill="#545E73"/>
<path d="M139.99 14.4425H13.5855V105.884H139.99V14.4425Z" fill="#143A6F"/>
<path d="M142.689 108.574H10.9065V11.7537H142.689V108.574ZM16.2854 103.195H137.311V17.1326H16.2854V103.195Z" fill="#ECF0F1"/>
<path d="M40.4896 49.7836C47.2761 49.7836 52.7777 44.282 52.7777 37.4955C52.7777 30.7089 47.2761 25.2074 40.4896 25.2074C33.703 25.2074 28.2015 30.7089 28.2015 37.4955C28.2015 44.282 33.703 49.7836 40.4896 49.7836Z" fill="#F3D55A"/>
<path d="M137.299 79.2896L134.61 76.3016L102.337 46.7177L74.0981 77.6464L88.8442 92.3926L99.6476 103.196H137.299V79.2896Z" fill="#11A085"/>
<path d="M16.2841 103.205H99.6576L88.854 92.4016L59.3613 62.9096L16.2841 100.516V103.205Z" fill="#26B999"/>
<path d="M153.449 143C166.371 143 176.846 132.525 176.846 119.602C176.846 106.68 166.371 96.2049 153.449 96.2049C140.527 96.2049 130.052 106.68 130.052 119.602C130.052 132.525 140.527 143 153.449 143Z" fill="#29BA82"/>
<path d="M165.153 117.65H155.404V107.901C155.404 106.825 154.53 105.951 153.454 105.951C152.378 105.951 151.504 106.825 151.504 107.901V117.65H141.755C140.679 117.65 139.805 118.523 139.805 119.599C139.805 120.676 140.679 121.549 141.755 121.549H151.504V131.298C151.504 132.374 152.378 133.248 153.454 133.248C154.53 133.248 155.404 132.374 155.404 131.298V121.549H165.153C166.229 121.549 167.103 120.676 167.103 119.599C167.103 118.523 166.229 117.65 165.153 117.65Z" fill="white"/>
</svg>
