<svg fill="none" height="222" viewBox="0 0 250 222" width="250" xmlns="http://www.w3.org/2000/svg"><path d="m233.333 4.75h-229.16637v175h229.16637z" fill="#ecf0f1"/><path d="m237.5 183.917h-237.5v-183.333626h237.5zm-229.16667-8.334h220.83367v-166.66629h-220.83367z" fill="#545e73"/><path d="m216.667 21.4166h-195.8337v141.6664h195.8337z" fill="#545e73"/><path d="m220.833 167.25h-204.1664v-150h204.1664zm-195.833-8.333h187.5v-133.3337h-187.5z" fill="#ecf0f1"/><path d="m62.4997 76.1584c10.5141 0 19.0375-8.5234 19.0375-19.0375s-8.5234-19.0375-19.0375-19.0375c-10.5142 0-19.0375 8.5234-19.0375 19.0375s8.5233 19.0375 19.0375 19.0375z" fill="#f3d55a"/><path d="m212.5 121.879-4.167-4.629-50-45.8333-43.75 47.9163 22.846 22.846 16.738 16.738h58.333z" fill="#11a085"/><path d="m25 158.917h129.167l-16.738-16.738-45.6915-45.6916-66.7375 58.2626z" fill="#26b999"/><path d="m200 221.417c27.614 0 50-22.386 50-50s-22.386-50-50-50-50 22.386-50 50 22.386 50 50 50z" fill="#26b999"/><path d="m227.379 147.162c-1.896-1.316-4.487-.85-5.8 1.042l-23.316 33.5-16.455-13.508c-1.775-1.463-4.404-1.2-5.862.579-1.463 1.779-1.204 4.404.579 5.862l19.942 16.371c.75.613 1.683.946 2.641.946.188 0 .38-.012.571-.037 1.15-.163 2.184-.792 2.85-1.746l25.892-37.204c1.312-1.892.846-4.488-1.042-5.805z" fill="#fff"/></svg>